<?xml version="1.0" encoding="UTF-8"?><svg id="Ebene_2" xmlns="http://www.w3.org/2000/svg" xmlns:xlink="http://www.w3.org/1999/xlink" viewBox="0 0 339.29 152.92"><defs><style>.cls-1{stroke:#1d1d1b;stroke-miterlimit:10;stroke-width:2.7px;}.cls-1,.cls-2{fill:none;}.cls-3{fill:url(#H_B_Logo_Rot_verlauf);}.cls-4{fill:url(#Unbenannter_Verlauf_9-2);}.cls-5{fill:#1d1d1b;}.cls-6{fill:url(#Unbenannter_Verlauf_9);}</style><linearGradient id="H_B_Logo_Rot_verlauf" x1="54.22" y1="45.93" x2="94.9" y2="59.89" gradientUnits="userSpaceOnUse"><stop offset="0" stop-color="#be1622"/><stop offset="1" stop-color="#8c181b"/></linearGradient><linearGradient id="Unbenannter_Verlauf_9" x1="69.56" y1="84.91" x2="29.98" y2="68.09" gradientUnits="userSpaceOnUse"><stop offset="0" stop-color="#be1622"/><stop offset="1" stop-color="#8c181b"/></linearGradient><linearGradient id="Unbenannter_Verlauf_9-2" x1="54.4" y1="92.19" x2="93.97" y2="109.05" xlink:href="#Unbenannter_Verlauf_9"/></defs><g id="Ebene_1-2"><g id="H_P_Logo_original"><g><path class="cls-5" d="M271.68,127.24h-.05c-.45,.69-1.01,1.21-1.67,1.55-.66,.34-1.41,.51-2.23,.51-.88,0-1.69-.16-2.41-.48s-1.35-.77-1.87-1.35c-.53-.58-.94-1.27-1.22-2.06-.28-.8-.42-1.68-.42-2.64s.14-1.85,.41-2.66c.27-.81,.67-1.51,1.21-2.12,.51-.58,1.14-1.03,1.88-1.36s1.61-.49,2.59-.49c.75,0,1.41,.1,2,.29,.58,.19,1.09,.46,1.52,.81,.43,.35,.78,.76,1.05,1.24,.27,.48,.47,1.01,.59,1.59h-1.8c-.19-.71-.56-1.3-1.1-1.75-.54-.45-1.3-.68-2.28-.68-.74,0-1.38,.13-1.92,.39-.54,.26-.99,.62-1.34,1.08-.35,.46-.61,1-.78,1.63-.17,.63-.25,1.31-.25,2.03s.1,1.43,.31,2.05c.21,.62,.5,1.15,.88,1.59,.37,.44,.82,.78,1.34,1.03,.52,.24,1.09,.37,1.72,.37s1.17-.1,1.64-.3c.47-.2,.86-.47,1.16-.81,.31-.34,.54-.73,.69-1.18,.15-.45,.23-.92,.23-1.42v-.27h-3.67v-1.48h5.39v6.69h-1.1l-.46-1.78Z"/><path class="cls-5" d="M275.31,119.9h1.56v1.36h.05c.28-.5,.66-.89,1.12-1.16,.46-.28,.99-.42,1.58-.42,.55,0,1.04,.14,1.45,.42,.41,.28,.72,.71,.91,1.27h.03c.33-.58,.74-1,1.24-1.28,.5-.28,1.03-.42,1.58-.42,.84,0,1.52,.25,2.04,.76,.52,.51,.78,1.25,.78,2.21v6.37h-1.58v-6.24c0-.57-.16-1-.48-1.32s-.71-.47-1.17-.47c-.29,0-.57,.06-.83,.18s-.49,.29-.68,.5-.35,.47-.47,.76c-.12,.29-.18,.61-.18,.96v5.62h-1.56v-6.24c0-.57-.14-1-.42-1.32s-.66-.47-1.14-.47c-.27,0-.54,.06-.82,.18-.27,.12-.51,.29-.72,.5s-.38,.47-.52,.76c-.14,.29-.2,.61-.2,.96v5.62h-1.58v-9.12Z"/><path class="cls-5" d="M294.26,129.3c-.61,0-1.17-.13-1.67-.4-.5-.27-.89-.65-1.19-1.16h-.05v1.29h-1.56v-12.64h1.58v3.23c0,.35,0,.68-.02,.99-.01,.31-.02,.55-.03,.75h.05c.29-.49,.69-.89,1.19-1.2,.5-.31,1.08-.47,1.75-.47,.58,0,1.1,.11,1.58,.33,.48,.22,.89,.54,1.23,.95s.61,.92,.8,1.51c.19,.59,.28,1.27,.28,2.01s-.09,1.4-.27,2c-.18,.59-.44,1.1-.78,1.51s-.75,.73-1.24,.96-1.04,.34-1.65,.34Zm-.17-1.31c.42,0,.78-.09,1.1-.26,.31-.18,.57-.42,.78-.73,.21-.31,.37-.68,.47-1.1,.1-.42,.15-.89,.15-1.38s-.05-.96-.15-1.39c-.1-.43-.25-.8-.46-1.11-.2-.31-.46-.55-.77-.73-.31-.18-.68-.26-1.1-.26-.49,0-.91,.09-1.26,.27-.35,.18-.64,.43-.88,.75-.23,.32-.41,.69-.52,1.11-.11,.42-.17,.88-.17,1.37s.06,.96,.18,1.38,.29,.79,.53,1.1c.23,.31,.52,.56,.88,.73,.35,.18,.76,.26,1.22,.26Z"/><path class="cls-5" d="M300.1,116.38h1.73v5.32h6.52v-5.32h1.75v12.64h-1.75v-5.91h-6.52v5.91h-1.73v-12.64Z"/></g><g><g><path class="cls-5" d="M109.4,43.01h4.37v7.38h7.22v-7.38h4.37v19.12h-4.37v-8.1h-7.22v8.1h-4.37v-19.12Z"/><path class="cls-5" d="M134.23,43.01h4.55l6.91,19.12h-4.63l-1.21-3.65h-6.94l-1.18,3.65h-4.4l6.89-19.12Zm-.28,12.34h4.91l-1.16-3.57c-.21-.65-.38-1.28-.54-1.89s-.28-1.15-.39-1.63c-.12-.57-.22-1.09-.31-1.57h-.05c-.14,.63-.27,1.25-.41,1.85-.14,.51-.28,1.07-.42,1.66-.15,.59-.3,1.12-.45,1.58l-1.18,3.57Z"/><path class="cls-5" d="M154.85,62.6c-1.29,0-2.44-.15-3.47-.44-1.03-.29-1.91-.71-2.65-1.26-.74-.55-1.31-1.23-1.71-2.04-.4-.81-.62-1.73-.66-2.76h4.42c.12,1.05,.52,1.81,1.2,2.29,.68,.48,1.63,.72,2.87,.72,.43,0,.84-.04,1.23-.13,.39-.09,.75-.22,1.05-.4,.31-.18,.55-.41,.73-.69,.18-.28,.27-.62,.27-1.02s-.1-.75-.3-1.03c-.2-.27-.48-.51-.86-.69s-.84-.36-1.39-.5c-.55-.15-1.17-.3-1.85-.45-.93-.21-1.8-.44-2.62-.69-.82-.26-1.54-.6-2.16-1.02-.62-.42-1.1-.95-1.45-1.59s-.53-1.46-.53-2.46,.19-1.85,.57-2.57,.9-1.31,1.57-1.79c.67-.47,1.46-.82,2.37-1.05,.91-.23,1.89-.35,2.96-.35s2.01,.12,2.9,.36c.89,.24,1.66,.6,2.31,1.08,.65,.48,1.17,1.08,1.57,1.79,.39,.71,.63,1.54,.69,2.48h-4.29c-.12-.75-.46-1.34-1.03-1.75-.57-.41-1.33-.62-2.29-.62-.91,0-1.64,.18-2.18,.54-.55,.36-.82,.84-.82,1.44,0,.38,.1,.69,.31,.93,.21,.24,.51,.45,.9,.63,.39,.18,.88,.34,1.45,.48,.57,.14,1.24,.29,1.99,.46,.86,.19,1.68,.42,2.48,.68,.8,.27,1.5,.62,2.11,1.07,.61,.45,1.1,1,1.46,1.67,.37,.67,.55,1.51,.55,2.52s-.2,1.87-.59,2.63c-.39,.76-.94,1.41-1.63,1.93-.69,.52-1.51,.92-2.44,1.2-.93,.27-1.95,.41-3.05,.41Z"/><path class="cls-5" d="M172.94,62.6c-1.29,0-2.44-.15-3.47-.44-1.03-.29-1.91-.71-2.65-1.26-.74-.55-1.31-1.23-1.71-2.04-.4-.81-.62-1.73-.66-2.76h4.42c.12,1.05,.52,1.81,1.2,2.29,.68,.48,1.63,.72,2.87,.72,.43,0,.84-.04,1.23-.13,.39-.09,.75-.22,1.05-.4,.31-.18,.55-.41,.73-.69,.18-.28,.27-.62,.27-1.02s-.1-.75-.3-1.03c-.2-.27-.48-.51-.86-.69s-.84-.36-1.39-.5c-.55-.15-1.17-.3-1.85-.45-.93-.21-1.8-.44-2.62-.69-.82-.26-1.54-.6-2.16-1.02-.62-.42-1.1-.95-1.45-1.59s-.53-1.46-.53-2.46,.19-1.85,.57-2.57,.9-1.31,1.57-1.79c.67-.47,1.46-.82,2.37-1.05,.91-.23,1.89-.35,2.96-.35s2.01,.12,2.9,.36c.89,.24,1.66,.6,2.31,1.08,.65,.48,1.17,1.08,1.57,1.79,.39,.71,.63,1.54,.69,2.48h-4.29c-.12-.75-.46-1.34-1.03-1.75-.57-.41-1.33-.62-2.29-.62-.91,0-1.64,.18-2.18,.54-.55,.36-.82,.84-.82,1.44,0,.38,.1,.69,.31,.93,.21,.24,.51,.45,.9,.63,.39,.18,.88,.34,1.45,.48,.57,.14,1.24,.29,1.99,.46,.86,.19,1.68,.42,2.48,.68,.8,.27,1.5,.62,2.11,1.07,.61,.45,1.1,1,1.46,1.67,.37,.67,.55,1.51,.55,2.52s-.2,1.87-.59,2.63c-.39,.76-.94,1.41-1.63,1.93-.69,.52-1.51,.92-2.44,1.2-.93,.27-1.95,.41-3.05,.41Z"/><path class="cls-5" d="M183.28,43.01h14.34v3.65h-9.97v3.8h8.64v3.47h-8.64v4.45h10.15v3.75h-14.52v-19.12Z"/><path class="cls-5" d="M200.6,43.01h4.37v15.37h8.82v3.75h-13.19v-19.12Z"/><path class="cls-5" d="M216.23,43.01h9.05c1.97,0,3.46,.44,4.47,1.31,1.08,.94,1.62,2.16,1.62,3.65,0,1.92-1.03,3.2-3.08,3.83v.1c1.23,.29,2.18,.84,2.84,1.66,.66,.81,.99,1.81,.99,2.99,0,.93-.16,1.73-.49,2.42-.33,.69-.79,1.27-1.39,1.75-1.15,.94-2.72,1.41-4.73,1.41h-9.28v-19.12Zm8.43,7.69c.75,0,1.36-.18,1.81-.53s.68-.89,.68-1.61-.22-1.24-.66-1.61c-.44-.37-1.03-.55-1.79-.55h-4.14v4.29h4.09Zm.39,7.99c.86,0,1.53-.23,2.03-.69,.46-.43,.69-1.01,.69-1.75,0-.84-.27-1.46-.8-1.88-.53-.41-1.2-.62-2-.62h-4.4v4.94h4.47Z"/><path class="cls-5" d="M234.58,43.01h9.1c.92,0,1.79,.12,2.58,.36,.8,.24,1.49,.6,2.07,1.07,.58,.47,1.04,1.05,1.38,1.72s.5,1.45,.5,2.33c0,1.13-.28,2.09-.85,2.88-.57,.79-1.46,1.38-2.7,1.77v.08c.96,.29,1.67,.72,2.12,1.3,.45,.57,.75,1.38,.89,2.4,.09,.65,.15,1.26,.19,1.84,.04,.57,.08,1.09,.13,1.54,.04,.45,.1,.82,.17,1.11s.18,.46,.33,.53v.21h-4.32c-.14-.07-.24-.24-.3-.51-.06-.27-.11-.61-.15-1.02-.04-.4-.08-.85-.12-1.35-.04-.5-.08-1.01-.13-1.54-.12-.96-.43-1.68-.94-2.16-.5-.48-1.29-.72-2.35-.72h-3.24v7.3h-4.37v-19.12Zm4.37,8.58h3.88c.98,0,1.72-.23,2.24-.68,.51-.45,.77-1.07,.77-1.84s-.24-1.42-.71-1.89c-.47-.47-1.2-.71-2.17-.71h-4.01v5.11Z"/><path class="cls-5" d="M261.72,62.6c-1.46,0-2.77-.25-3.93-.75-1.17-.5-2.16-1.19-2.98-2.08-.82-.89-1.45-1.94-1.89-3.16-.44-1.22-.66-2.54-.66-3.96s.22-2.77,.66-3.98c.44-1.22,1.07-2.27,1.89-3.15,.82-.88,1.82-1.58,2.98-2.08s2.48-.76,3.93-.76,2.74,.25,3.91,.76c1.17,.51,2.16,1.2,2.98,2.08,.82,.88,1.45,1.93,1.89,3.15,.44,1.22,.66,2.54,.66,3.98s-.22,2.74-.66,3.96c-.44,1.22-1.07,2.27-1.89,3.16-.82,.89-1.82,1.58-2.98,2.08-1.17,.5-2.47,.75-3.91,.75Zm.03-3.6c.82,0,1.54-.16,2.16-.49,.62-.33,1.13-.77,1.54-1.34s.72-1.23,.92-2c.21-.77,.31-1.61,.31-2.52s-.1-1.75-.31-2.53c-.21-.78-.51-1.46-.92-2.04-.41-.58-.93-1.04-1.54-1.36-.62-.33-1.34-.49-2.16-.49s-1.55,.16-2.17,.49c-.62,.33-1.15,.78-1.57,1.36-.42,.58-.74,1.26-.95,2.04-.21,.78-.32,1.62-.32,2.53s.11,1.75,.32,2.52c.21,.77,.53,1.44,.95,2s.94,1.01,1.57,1.34c.63,.33,1.35,.49,2.17,.49Z"/><path class="cls-5" d="M282.29,62.57c-1.39,0-2.66-.25-3.82-.75-1.16-.5-2.15-1.19-2.97-2.07-.82-.88-1.46-1.93-1.92-3.15-.45-1.22-.68-2.54-.68-3.96s.22-2.74,.67-3.96c.45-1.22,1.08-2.27,1.89-3.16,.81-.89,1.8-1.59,2.96-2.09s2.45-.76,3.87-.76c1.06,0,2.04,.12,2.93,.37,.89,.25,1.66,.62,2.31,1.12,.87,.63,1.55,1.41,2.04,2.31s.79,1.9,.91,2.98h-4.37c-.14-.91-.54-1.66-1.22-2.25-.68-.59-1.56-.89-2.63-.89-.82,0-1.54,.16-2.15,.48s-1.11,.76-1.52,1.32-.71,1.23-.91,2c-.21,.77-.31,1.61-.31,2.52s.12,1.75,.35,2.52c.23,.77,.56,1.44,.98,1.99,.42,.56,.93,.99,1.54,1.31,.61,.32,1.29,.48,2.04,.48,1.18,0,2.12-.33,2.8-1,.69-.67,1.08-1.5,1.18-2.49h4.4c-.07,.96-.31,1.86-.72,2.71s-.94,1.6-1.59,2.25c-.72,.72-1.58,1.26-2.57,1.62-.99,.36-2.16,.54-3.5,.54Z"/><path class="cls-5" d="M293.05,43.01h4.37v3.14c0,.87-.02,1.72-.05,2.53-.03,.81-.07,1.48-.1,1.99l7.15-7.66h5.24l-7.38,7.69,7.84,11.44h-5.12l-5.83-8.66-1.75,1.83v6.84h-4.37v-19.12Z"/></g><g><path class="cls-5" d="M117.35,86.39c-2.61,0-4.58-.6-5.92-1.81-1.35-1.21-2.02-2.94-2.02-5.21v-12.47h4.37v12.57c0,1.05,.29,1.87,.86,2.47,.57,.6,1.48,.9,2.71,.9,1.15,0,2.01-.31,2.6-.94,.58-.63,.87-1.46,.87-2.51v-12.49h4.4v12.47c0,2.25-.67,3.98-2,5.19-1.34,1.22-3.29,1.83-5.86,1.83Z"/><path class="cls-5" d="M128.22,66.9h4.47l5.04,8.3c.29,.5,.59,1.03,.89,1.61,.3,.57,.58,1.12,.83,1.63l.9,1.8h.05c-.05-.65-.09-1.31-.13-1.98-.03-.57-.06-1.17-.08-1.82-.02-.65-.03-1.25-.03-1.8v-7.74h4.19v19.12h-4.5l-4.99-8.2c-.29-.48-.59-1.02-.9-1.62-.31-.6-.59-1.16-.85-1.67-.31-.6-.61-1.21-.9-1.83h-.05c.03,.67,.07,1.34,.1,2,.03,.57,.06,1.17,.09,1.82,.03,.65,.04,1.25,.04,1.8v7.69h-4.19v-19.12Z"/><path class="cls-5" d="M147.62,66.9h7.97c1.34,0,2.55,.23,3.64,.69,1.09,.46,2.02,1.11,2.79,1.95,.77,.84,1.36,1.86,1.77,3.06,.41,1.2,.62,2.53,.62,3.98s-.2,2.71-.59,3.87c-.39,1.16-.98,2.15-1.75,2.97-.77,.82-1.72,1.46-2.85,1.92-1.13,.45-2.42,.68-3.88,.68h-7.71v-19.12Zm7.38,15.42c1.66,0,2.9-.5,3.71-1.49,.81-.99,1.22-2.41,1.22-4.24s-.41-3.27-1.22-4.36c-.81-1.09-2.03-1.63-3.64-1.63h-3.06v11.72h2.98Z"/></g><g><path class="cls-5" d="M109.41,90.8h8.51c2.23,0,3.93,.59,5.12,1.77,.58,.58,1.03,1.26,1.35,2.02,.32,.76,.48,1.62,.48,2.56s-.15,1.74-.45,2.49-.73,1.4-1.29,1.94-1.23,.96-2.02,1.26c-.79,.3-1.68,.45-2.67,.45h-4.58v6.63h-4.45v-19.12Zm4.45,9.02h3.73c.93,0,1.63-.24,2.12-.72,.49-.48,.73-1.13,.73-1.95s-.24-1.49-.73-1.94c-.49-.45-1.19-.68-2.1-.68h-3.75v5.29Z"/><path class="cls-5" d="M131.2,90.8h4.55l6.91,19.12h-4.63l-1.21-3.65h-6.94l-1.18,3.65h-4.4l6.89-19.12Zm-.28,12.34h4.91l-1.16-3.57c-.21-.65-.38-1.28-.54-1.89s-.28-1.15-.39-1.63c-.12-.57-.22-1.09-.31-1.57h-.05c-.14,.63-.27,1.25-.41,1.85-.14,.51-.28,1.07-.42,1.66-.15,.59-.3,1.12-.45,1.58l-1.18,3.57Z"/><path class="cls-5" d="M145.03,90.8h9.1c.92,0,1.79,.12,2.58,.36,.8,.24,1.49,.6,2.07,1.07,.58,.47,1.04,1.05,1.38,1.72s.5,1.45,.5,2.33c0,1.13-.28,2.09-.85,2.88-.57,.79-1.46,1.38-2.7,1.77v.08c.96,.29,1.67,.72,2.12,1.3,.45,.57,.75,1.38,.89,2.4,.09,.65,.15,1.26,.19,1.84,.04,.57,.08,1.09,.13,1.54,.04,.45,.1,.82,.17,1.11s.18,.46,.33,.53v.21h-4.32c-.14-.07-.24-.24-.3-.51-.06-.27-.11-.61-.15-1.02-.04-.4-.08-.85-.12-1.35-.04-.5-.08-1.01-.13-1.54-.12-.96-.43-1.68-.94-2.16-.5-.48-1.29-.72-2.35-.72h-3.24v7.3h-4.37v-19.12Zm4.37,8.58h3.88c.98,0,1.72-.23,2.24-.68,.51-.45,.77-1.07,.77-1.84s-.24-1.42-.71-1.89c-.47-.47-1.2-.71-2.17-.71h-4.01v5.11Z"/><path class="cls-5" d="M162.79,90.8h15.78v3.73h-5.71v15.4h-4.4v-15.4h-5.68v-3.73Z"/><path class="cls-5" d="M181.32,90.8h4.47l5.04,8.3c.29,.5,.59,1.03,.89,1.61,.3,.57,.58,1.12,.83,1.63l.9,1.8h.05c-.05-.65-.09-1.31-.13-1.98-.03-.57-.06-1.17-.08-1.82-.02-.65-.03-1.25-.03-1.8v-7.74h4.19v19.12h-4.5l-4.99-8.2c-.29-.48-.59-1.02-.9-1.62-.31-.6-.59-1.16-.85-1.67-.31-.6-.61-1.21-.9-1.83h-.05c.03,.67,.07,1.34,.1,2,.03,.57,.06,1.17,.09,1.82,.03,.65,.04,1.25,.04,1.8v7.69h-4.19v-19.12Z"/><path class="cls-5" d="M201.12,90.8h14.34v3.65h-9.97v3.8h8.64v3.47h-8.64v4.45h10.15v3.75h-14.52v-19.12Z"/><path class="cls-5" d="M218.77,90.8h9.1c.92,0,1.79,.12,2.58,.36,.8,.24,1.49,.6,2.07,1.07,.58,.47,1.04,1.05,1.38,1.72s.5,1.45,.5,2.33c0,1.13-.28,2.09-.85,2.88-.57,.79-1.46,1.38-2.7,1.77v.08c.96,.29,1.67,.72,2.12,1.3,.45,.57,.75,1.38,.89,2.4,.09,.65,.15,1.26,.19,1.84,.04,.57,.08,1.09,.13,1.54,.04,.45,.1,.82,.17,1.11s.18,.46,.33,.53v.21h-4.32c-.14-.07-.24-.24-.3-.51-.06-.27-.11-.61-.15-1.02-.04-.4-.08-.85-.12-1.35-.04-.5-.08-1.01-.13-1.54-.12-.96-.43-1.68-.94-2.16-.5-.48-1.29-.72-2.35-.72h-3.24v7.3h-4.37v-19.12Zm4.37,8.58h3.88c.98,0,1.72-.23,2.24-.68,.51-.45,.77-1.07,.77-1.84s-.24-1.42-.71-1.89c-.47-.47-1.2-.71-2.17-.71h-4.01v5.11Z"/></g><rect class="cls-3" x="52.06" y="43.01" width="43.01" height="19.11"/><rect class="cls-6" x="28.17" y="66.9" width="43.01" height="19.11"/><rect class="cls-4" x="52.06" y="90.79" width="43.01" height="19.11"/><g><path class="cls-5" d="M28.17,20.81h5.44c1.3,0,2.31,.36,3.02,1.07,.26,.27,.47,.59,.62,.95,.15,.36,.23,.78,.23,1.24,0,.69-.19,1.26-.56,1.7-.37,.44-.9,.76-1.58,.95v.05c.38,.09,.74,.22,1.06,.39,.32,.17,.6,.38,.84,.64,.24,.25,.42,.55,.55,.88,.13,.33,.2,.71,.2,1.13,0,.51-.08,.97-.25,1.38-.17,.41-.41,.77-.71,1.08-.36,.37-.81,.66-1.34,.87-.53,.2-1.14,.31-1.82,.31h-5.69v-12.64Zm5.2,5.39c.75,0,1.33-.17,1.74-.52,.41-.35,.62-.84,.62-1.49,0-.6-.19-1.06-.57-1.39-.38-.33-.91-.49-1.59-.49h-3.67v3.89h3.47Zm.39,5.73c.85,0,1.48-.21,1.9-.63,.37-.35,.56-.83,.56-1.43,0-.76-.24-1.33-.72-1.7s-1.1-.56-1.84-.56h-3.75v4.32h3.86Z"/><path class="cls-5" d="M42.78,33.64c-.43,0-.83-.05-1.21-.16-.38-.11-.71-.27-.99-.48-.28-.21-.5-.48-.65-.81-.16-.32-.24-.71-.24-1.15,0-.53,.09-.97,.28-1.31,.19-.34,.45-.61,.8-.82,.34-.2,.76-.36,1.24-.48s1.02-.2,1.61-.27c.34-.03,.65-.08,.92-.14,.27-.06,.5-.13,.7-.23,.19-.1,.34-.22,.44-.37,.1-.15,.15-.34,.15-.58,0-.5-.17-.89-.5-1.17s-.82-.42-1.45-.42c-.73,0-1.27,.16-1.62,.48-.36,.32-.55,.75-.57,1.29h-1.53c.01-.39,.1-.75,.25-1.1,.16-.35,.39-.66,.7-.93s.69-.49,1.15-.65,.99-.24,1.61-.24c.43,0,.83,.04,1.21,.12,.37,.08,.71,.2,1,.37,.38,.23,.69,.54,.9,.95,.22,.41,.32,.92,.32,1.53v4.26c0,.36,.06,.63,.19,.82,.12,.18,.39,.23,.78,.14h.07v1.1c-.11,.03-.24,.06-.37,.09s-.29,.04-.48,.04c-.49,0-.86-.12-1.1-.35-.25-.23-.42-.59-.51-1.08h-.02c-.15,.2-.32,.4-.51,.58s-.41,.34-.66,.48c-.25,.14-.53,.25-.84,.34s-.66,.13-1.04,.13Zm.39-1.16c.45,0,.85-.08,1.18-.23,.33-.15,.61-.35,.83-.58,.22-.23,.38-.49,.49-.77,.11-.28,.16-.55,.16-.82v-1.5c-.23,.15-.52,.27-.89,.38-.37,.11-.74,.2-1.11,.26s-.71,.14-1.02,.21c-.31,.07-.57,.18-.78,.31-.22,.13-.38,.29-.5,.49-.12,.2-.18,.46-.18,.77,0,.29,.05,.54,.15,.72,.1,.19,.24,.34,.41,.45s.37,.19,.59,.23,.44,.06,.67,.06Z"/><path class="cls-5" d="M55.81,33.45v-1.27h-.03c-.33,.45-.71,.81-1.13,1.08s-.97,.4-1.62,.4c-.95,0-1.71-.27-2.26-.8-.56-.53-.83-1.28-.83-2.24v-6.29h1.58v6.2c0,.58,.17,1.03,.52,1.35s.83,.48,1.47,.48c.35,0,.67-.06,.95-.19,.28-.12,.52-.3,.72-.52s.35-.48,.46-.79c.11-.31,.16-.63,.16-.99v-5.56h1.58v9.12h-1.56Z"/><path class="cls-5" d="M65.77,33.45v-1.27h-.03c-.33,.45-.71,.81-1.13,1.08s-.97,.4-1.62,.4c-.95,0-1.71-.27-2.26-.8-.56-.53-.83-1.28-.83-2.24v-6.29h1.58v6.2c0,.58,.17,1.03,.52,1.35s.83,.48,1.47,.48c.35,0,.67-.06,.95-.19,.28-.12,.52-.3,.72-.52s.35-.48,.46-.79c.11-.31,.16-.63,.16-.99v-5.56h1.58v9.12h-1.56Z"/><path class="cls-5" d="M71.46,25.62h.05c.33-.46,.73-.83,1.19-1.1,.46-.27,1.03-.41,1.7-.41,.96,0,1.72,.25,2.26,.76s.82,1.25,.82,2.21v6.37h-1.56v-6.18c0-.59-.18-1.04-.54-1.36-.36-.32-.85-.48-1.47-.48-.35,0-.68,.06-.98,.18s-.56,.29-.77,.5c-.22,.22-.38,.48-.5,.78-.12,.31-.18,.64-.18,1v5.56h-1.58v-9.12h1.56v1.29Z"/><path class="cls-5" d="M79.24,24.33h1.43v-2.87h1.56v2.87h1.89v1.22h-1.89v5.76c0,.33,.08,.55,.25,.67s.39,.18,.69,.18c.14,0,.28-.01,.43-.04,.15-.03,.27-.05,.37-.08h.05v1.33c-.43,.1-.86,.15-1.27,.15-.61-.01-1.11-.16-1.5-.43-.38-.28-.58-.75-.58-1.42v-6.12h-1.43v-1.22Z"/><path class="cls-5" d="M90.02,33.71c-.7,0-1.33-.12-1.88-.37-.55-.25-1.02-.59-1.4-1.03-.38-.44-.68-.95-.88-1.53-.2-.58-.3-1.21-.3-1.88s.1-1.28,.31-1.86c.21-.58,.5-1.09,.88-1.53,.38-.44,.84-.78,1.38-1.03,.54-.25,1.14-.37,1.79-.37s1.28,.12,1.8,.37c.52,.25,.96,.59,1.33,1.04,.37,.45,.65,1,.84,1.63,.19,.63,.28,1.34,.28,2.12h-7c.03,.44,.12,.86,.25,1.24,.14,.39,.32,.72,.56,1,.24,.28,.53,.5,.87,.66,.34,.16,.73,.24,1.17,.24,.63,0,1.16-.14,1.57-.42,.41-.28,.69-.66,.84-1.15h1.55c-.2,.85-.65,1.54-1.35,2.06-.7,.53-1.57,.79-2.62,.79Zm-.08-8.38c-.41,0-.77,.07-1.09,.21-.32,.14-.59,.34-.82,.59-.23,.25-.41,.54-.54,.88s-.23,.71-.27,1.12h5.28c-.05-.88-.29-1.57-.72-2.06-.44-.49-1.05-.74-1.84-.74Z"/><path class="cls-5" d="M97.8,25.98h.05c.28-.53,.65-.96,1.1-1.28s.99-.48,1.6-.48c.12,0,.23,0,.31,.03,.08,.02,.17,.04,.26,.08v1.5h-.05c-.11-.03-.21-.06-.31-.07s-.2-.02-.34-.02c-.35,0-.69,.07-1,.2-.32,.13-.59,.31-.83,.55s-.43,.53-.57,.87-.21,.73-.21,1.16v4.96h-1.58v-9.12h1.56v1.65Z"/><path class="cls-5" d="M104.61,25.62h.05c.33-.46,.73-.83,1.19-1.1,.46-.27,1.03-.41,1.7-.41,.96,0,1.72,.25,2.26,.76s.82,1.25,.82,2.21v6.37h-1.56v-6.18c0-.59-.18-1.04-.54-1.36-.36-.32-.85-.48-1.47-.48-.35,0-.68,.06-.98,.18s-.56,.29-.77,.5c-.22,.22-.38,.48-.5,.78-.12,.31-.18,.64-.18,1v5.56h-1.58v-9.12h1.56v1.29Z"/><path class="cls-5" d="M117.08,33.71c-.7,0-1.33-.12-1.88-.37-.55-.25-1.02-.59-1.4-1.03-.38-.44-.68-.95-.88-1.53-.2-.58-.3-1.21-.3-1.88s.1-1.28,.31-1.86c.21-.58,.5-1.09,.88-1.53,.38-.44,.84-.78,1.38-1.03,.54-.25,1.14-.37,1.79-.37s1.28,.12,1.8,.37c.52,.25,.96,.59,1.33,1.04,.37,.45,.65,1,.84,1.63,.19,.63,.28,1.34,.28,2.12h-7c.03,.44,.12,.86,.25,1.24,.14,.39,.32,.72,.56,1,.24,.28,.53,.5,.87,.66,.34,.16,.73,.24,1.17,.24,.63,0,1.16-.14,1.57-.42,.41-.28,.69-.66,.84-1.15h1.55c-.2,.85-.65,1.54-1.35,2.06-.7,.53-1.57,.79-2.62,.79Zm-.08-8.38c-.41,0-.77,.07-1.09,.21-.32,.14-.59,.34-.82,.59-.23,.25-.41,.54-.54,.88s-.23,.71-.27,1.12h5.28c-.05-.88-.29-1.57-.72-2.06-.44-.49-1.05-.74-1.84-.74Z"/><path class="cls-5" d="M124.87,24.89c-.01,.28-.02,.54-.03,.76h.05c.34-.49,.74-.87,1.21-1.14,.47-.27,1.04-.41,1.71-.41,.96,0,1.72,.25,2.26,.76s.82,1.25,.82,2.21v6.37h-1.56v-6.18c0-.59-.18-1.04-.54-1.36-.36-.32-.85-.48-1.47-.48-.35,0-.68,.06-.98,.18s-.56,.29-.77,.5c-.22,.22-.38,.48-.5,.78-.12,.31-.18,.64-.18,1v5.56h-1.58v-12.64h1.58v3.31c0,.23,0,.48-.02,.76Z"/><path class="cls-5" d="M133.38,24.33h1.56v1.36h.05c.28-.5,.66-.89,1.12-1.16,.46-.28,.99-.42,1.58-.42,.55,0,1.04,.14,1.45,.42,.41,.28,.72,.71,.91,1.27h.03c.33-.58,.74-1,1.24-1.28,.5-.28,1.03-.42,1.58-.42,.84,0,1.52,.25,2.04,.76,.52,.51,.78,1.25,.78,2.21v6.37h-1.58v-6.24c0-.57-.16-1-.48-1.32s-.71-.47-1.17-.47c-.29,0-.57,.06-.83,.18s-.49,.29-.68,.5-.35,.47-.47,.76c-.12,.29-.18,.61-.18,.96v5.62h-1.56v-6.24c0-.57-.14-1-.42-1.32s-.66-.47-1.14-.47c-.27,0-.54,.06-.82,.18-.27,.12-.51,.29-.72,.5s-.38,.47-.52,.76c-.14,.29-.2,.61-.2,.96v5.62h-1.58v-9.12Z"/><path class="cls-5" d="M154.05,33.45v-1.27h-.03c-.33,.45-.71,.81-1.13,1.08s-.97,.4-1.62,.4c-.95,0-1.71-.27-2.26-.8-.56-.53-.83-1.28-.83-2.24v-6.29h1.58v6.2c0,.58,.17,1.03,.52,1.35s.83,.48,1.47,.48c.35,0,.67-.06,.95-.19,.28-.12,.52-.3,.72-.52s.35-.48,.46-.79c.11-.31,.16-.63,.16-.99v-5.56h1.58v9.12h-1.56Z"/><path class="cls-5" d="M159.75,25.62h.05c.33-.46,.73-.83,1.19-1.1,.46-.27,1.03-.41,1.7-.41,.96,0,1.72,.25,2.26,.76s.82,1.25,.82,2.21v6.37h-1.56v-6.18c0-.59-.18-1.04-.54-1.36-.36-.32-.85-.48-1.47-.48-.35,0-.68,.06-.98,.18s-.56,.29-.77,.5c-.22,.22-.38,.48-.5,.78-.12,.31-.18,.64-.18,1v5.56h-1.58v-9.12h1.56v1.29Z"/><path class="cls-5" d="M172.12,36.65c-1.2,0-2.13-.22-2.79-.67-.66-.45-1.04-1.08-1.13-1.89h1.48c.07,.48,.32,.82,.75,1.03,.43,.21,.99,.31,1.67,.31,.82,0,1.44-.18,1.88-.55,.44-.37,.65-.94,.65-1.72v-.25c0-.26,0-.51,0-.74,0-.23,.01-.42,.03-.57h-.03c-.32,.45-.69,.81-1.11,1.07-.42,.26-.96,.39-1.61,.39-.58,0-1.11-.11-1.61-.32-.49-.22-.92-.52-1.27-.92-.35-.4-.63-.87-.82-1.41-.2-.54-.3-1.15-.3-1.82,0-.7,.1-1.33,.31-1.89,.2-.56,.48-1.02,.84-1.4,.36-.38,.77-.67,1.25-.88,.48-.2,.98-.31,1.51-.31,.66,0,1.21,.12,1.66,.37s.82,.6,1.11,1.06h.03v-1.21h1.56v8.75c0,.61-.1,1.14-.29,1.59-.19,.45-.46,.82-.82,1.11-.36,.29-.79,.51-1.29,.65s-1.05,.21-1.67,.21Zm-.07-4.89c.5,0,.92-.08,1.26-.25s.61-.39,.82-.68c.21-.29,.36-.63,.45-1.03s.14-.83,.14-1.29c0-.96-.22-1.72-.65-2.27s-1.11-.82-2.03-.82c-.84,0-1.47,.29-1.89,.87-.42,.58-.63,1.35-.63,2.31s.21,1.74,.65,2.31c.43,.57,1.06,.85,1.89,.85Z"/></g><line class="cls-1" x1="310" y1="28.62" x2="181.1" y2="28.62"/><line class="cls-1" x1="257.54" y1="124.25" x2="28.17" y2="124.25"/><rect class="cls-2" width="339.29" height="152.92"/></g></g></g></svg>