<?xml version="1.0" encoding="UTF-8"?><svg id="Ebene_3" xmlns="http://www.w3.org/2000/svg" xmlns:xlink="http://www.w3.org/1999/xlink" viewBox="0 0 789.12 789.12"><defs><style>.cls-1{fill:url(#Unbenannter_Verlauf_30);}.cls-2{fill:none;}</style><linearGradient id="Unbenannter_Verlauf_30" x1="528.52" y1="528.52" x2="648.9" y2="648.9" gradientUnits="userSpaceOnUse"><stop offset=".19" stop-color="#a770ef"/><stop offset=".27" stop-color="#b378f0"/><stop offset=".41" stop-color="#cf8bf3"/><stop offset=".46" stop-color="#d490e8"/><stop offset=".55" stop-color="#e29ecd"/><stop offset=".67" stop-color="#f9b5a1"/><stop offset=".68" stop-color="#fdb99b"/></linearGradient></defs><g id="Weiß_für_dunklen_Hintergrund"><rect class="cls-2" x="0" y="0" width="789.12" height="789.12" transform="translate(789.12 789.12) rotate(-180)"/><rect x="162.04" y="534.07" width="279.03" height="93.01"/><rect class="cls-1" x="534.07" y="534.07" width="93.01" height="93.01"/><path d="M348.06,169.98c-14.55-5.14-30.2-7.94-46.51-7.94-16.3,0-31.95,2.8-46.5,7.94-39.65,14.01-71.07,45.43-85.08,85.07-4.95,14.01-7.73,29.04-7.93,44.7v141.31s93.01,0,93.01,0v-139.51c0-25.68,20.82-46.5,46.51-46.5,25.68,0,46.5,20.82,46.5,46.5v139.51s93.01,0,93.01,0v-139.51c0-25.68,20.82-46.5,46.5-46.5,25.68,0,46.5,20.82,46.5,46.5v139.51s93.01,0,93.01,0v-141.31c-.2-15.66-2.98-30.69-7.93-44.7-14.01-39.65-45.43-71.07-85.08-85.07-14.55-5.15-30.2-7.94-46.5-7.94-16.3,0-31.95,2.8-46.5,7.94-17.33,6.12-33.09,15.57-46.51,27.59-13.42-12.02-29.17-21.47-46.5-27.59Z"/></g></svg>