<?xml version="1.0" encoding="UTF-8"?><svg id="Ebene_1" xmlns="http://www.w3.org/2000/svg" viewBox="0 0 1024 570"><defs><style>.cls-1{fill:#0f3f69;}.cls-2{opacity:.8;}.cls-2,.cls-3{fill:#f9f2a6;}.cls-4{fill:#006176;}.cls-5{fill:#f8af3b;}.cls-6{fill:#eee655;}.cls-7{fill:#e95555;}.cls-8{fill:none;stroke:#e95555;stroke-miterlimit:10;stroke-width:15.38px;}</style></defs><rect class="cls-3" width="1024" height="570"/><g><g><path class="cls-4" d="M637.01,281.57h-248.27c-.45-5.46-.45-10.81-.11-16.16,.45-6.8,1.45-13.59,3.01-20.28,2.12-9.47,5.46-18.61,9.81-27.41,3.01-5.91,6.46-11.7,10.47-17.27,13.71-18.83,31.87-33.32,52.82-42.01,8.91-3.79,18.39-6.46,28.19-8.02,6.57-1.11,13.26-1.67,19.95-1.67,16.6,0,32.87,3.34,48.03,9.69,11.48,4.9,22.4,11.48,32.09,19.72,15.49,13.04,27.41,29.53,34.99,48.03,2.56,6.24,4.57,12.59,6.13,19.17,.56,2.67,1.11,5.24,1.56,7.91,.67,4.12,1.11,8.13,1.34,12.15,.45,5.46,.45,10.81,0,16.16Z"/><path class="cls-7" d="M619.52,271.09c.11,3.57,0,7.02-.22,10.47h-212.83c-.33-3.45-.45-7.02-.33-10.47-.11-2.12,0-4.23,.22-6.24,.56-6.8,1.67-13.48,3.57-19.95,3.23-12.03,8.8-23.62,16.38-34.1,14.6-20.17,35.21-34.43,58.84-40.67,3.46-1,7.02-1.78,10.59-2.34,5.68-.89,11.48-1.34,17.16-1.34,9.36,0,18.72,1.23,27.63,3.68,15.04,4.01,29.08,11.37,41.12,21.51,16.6,13.93,28.41,32.54,34.1,53.26,1,3.68,1.89,7.47,2.45,11.25,.45,2.9,.78,5.79,1.11,8.69,.11,2.12,.22,4.12,.22,6.24Z"/><path class="cls-6" d="M601.8,271.09c.22,3.45,.11,7.02-.33,10.47h-177.18c-.45-3.45-.56-7.02-.45-10.47,0-2.12,.11-4.12,.22-6.24,1.11-11.92,4.57-23.4,10.47-33.99,1.67-3.34,3.79-6.57,6.02-9.69,13.93-19.39,34.54-32.09,58.06-35.88,3.68-.56,7.35-1,11.14-1.11,.11,0,.22-.11,.45,0,.89-.11,1.78-.11,2.67-.11s1.78,0,2.67,.11c.11-.11,.33-.11,.45,0,19.84,.67,39,8.02,54.27,20.95,8.58,7.24,15.6,15.93,20.84,25.63,4.79,8.69,8.02,18.27,9.69,28.19,.33,2.01,.56,3.9,.78,5.91,.11,2.01,.22,4.12,.22,6.24Z"/><path class="cls-5" d="M578.29,271.09c.11,3.57,0,7.02-.45,10.47h-129.93c-.56-3.57-.67-7.02-.56-10.47,0-2.12,.11-4.23,.45-6.24,3.57-28.08,25.3-51.59,54.6-56.38,1.34-.22,2.67-.45,4.01-.56,4.35-.45,8.58-.45,12.81,0,28.86,2.79,53.38,24.85,58.28,54.82,.11,.67,.22,1.45,.22,2.12,.33,2.12,.56,4.12,.56,6.24Z"/><path class="cls-1" d="M560.8,273.21c0,2.9-.22,5.68-.78,8.36h-94.27c-.56-2.67-.78-5.46-.78-8.36,0-.67,0-1.45,.11-2.12,0-2.12,.22-4.23,.67-6.24,3.57-20.39,19.95-36.33,40.67-39.11,2.12-.33,4.23-.45,6.46-.45s4.23,.11,6.35,.45c20.73,2.67,37.22,18.72,40.78,39.11,.45,2.01,.67,4.12,.67,6.24,.11,.67,.11,1.45,.11,2.12Z"/><path class="cls-2" d="M634.11,245.37v10.04l-.09-.05-18.23-10.44-24.57-14.07-74.47-42.65-.89-.51-.28-.16h0s-1.06-.61-1.06-.61h-.01s-1-.58-1-.58l-.29-.16-.35-.2,.35-.2,.29-.16,.41-.23,.21-.12,.67-.38,.74-.42,.48-.28,24.54-14.05,20.34-11.65,4.74-2.71c12.41,5.96,23.64,13.98,33.27,23.6,13.02,13.02,23.09,28.99,29.14,46.81,0,.01,0,.02,.01,.04,2.53,6.19,4.57,12.6,6.07,19.16Z"/><path class="cls-2" d="M512.85,185.97l-1.35,.77-.39,.22-.67,.38-.19,.12-.32,.18-.77,.44-3.03,1.74-.57,.32-.2,.12-.21,.12-70.65,40.46-24.64,14.11-17.56,10.06-.71,.41v-10.25c2.19-9.45,5.5-18.64,9.89-27.39,11.48-27.06,32.52-49.08,58.87-61.84l4.4,2.51,20.39,11.68,24.56,14.06,.55,.31,.45,.26,.58,.33,.22,.12,.18,.11,.2,.11,.97,.55Z"/><path class="cls-1" d="M642.36,254.71c-.89-10.36-2.9-20.5-6.24-30.76-.11-.11-.11-.33-.22-.45-6.35-18.72-17.05-35.99-31.09-50.03-10.47-10.36-22.4-18.94-35.55-25.18-17.61-8.47-36.44-12.81-56.16-12.81s-38.78,4.35-56.38,12.93c-28.3,13.71-50.59,37.22-62.96,66.08-5.35,12.7-8.69,26.07-9.81,39.78-.22,3.68-.45,7.24-.45,10.81v16.49h16.71v-16.71c0-3.01,.11-6.13,.45-9.14,.11-2.01,.33-4.01,.67-5.91,1.23-9.92,3.9-19.5,7.8-28.75,10.7-25.3,30.2-45.69,54.82-57.61,1.78-.89,3.45-1.67,5.24-2.45,13.93-5.79,28.64-8.8,43.9-8.8s29.75,2.9,43.57,8.69c1.78,.67,3.57,1.45,5.35,2.34,11.48,5.57,21.95,12.93,30.98,22.06,12.15,12.15,21.51,27.19,27.08,43.46v.11c2.34,6.91,4.01,14.15,4.9,21.39,.33,1.89,.56,3.9,.67,5.79,.33,2.79,.45,5.91,.45,8.8v16.71h16.6v-16.49c0-3.45-.11-7.02-.33-10.36Z"/><rect class="cls-3" x="391.42" y="271.09" width="242.81" height="10.47"/><path class="cls-1" d="M637.01,265.41c-.89-.33-1.89-.56-2.9-.56h-242.47c-1.11,0-2.12,.22-3.01,.56-2.67,1-4.57,3.34-5.13,6.13-.11,.56-.22,1.11-.22,1.67v8.36h259.19v-8.36c0-3.57-2.34-6.57-5.46-7.8Z"/><path class="cls-1" d="M518.34,205.12v-3.68l.11-.11v-.11l-.33-.33h-.33v-.11h.11v-.11l-.22-.11h-.22v-2.56h.11v-.22l-.56-.33v-.22l-.11-.33v-4.57l.22-.22v-.89s.22-.45,.22-.78-.45-.45-.45-.45v-.89s.11,0,.11-.33c0-.22-.11-.33-.22-.56q-.11,0-.11-.11c-.11-.11-.22-1.23-.22-1.23,0,0,.11,0,.11-.11s-.22-.22-.22-.22v-.33h-.22v.45h-.22l.22,.33-.22,.67-.11,.22-.22-.11v-4.01l.11-.22v-.11l-.11-.11v-1.89h-.11v-.33h-.11v.33h-.11v.22h.11v1.34c0-.45-.33-.78-.33-.78v-1.11h.11v-.11h-.11v-.45h-.11v.33l-.11,.11v.11h.11v.89s-1.11-1.67-1.45-2.23c-.33-.67-.33-1.11-.33-1.11v-.11c0-.22-.22-.33-.22-.33v-1.67l1.34-.11s-.11-.11-.11-.22c-.11-.11,.11-.33,.11-.33l-.33,.11v-.22l-1,.56v-.56h-.11v.67l-.67,.22-.11,.11,.11,.11,.67-.33v1.78c-.22,0-.22,.33-.22,.33h.11c0,.56-.45,1.11-.45,1.11l-.78,1.23v-.56h-.22v.89l-.33,.56v-.33h-.22v.56c-.22,.33-.22,1-.22,1v-2.12h-.22v2.23l-.11,.11,.11,.22v4.23c-.22,0-.33,.11-.33,.11l.11-.22v-.11l.11-.11v-.22l-.45-1.56h.22l-.22-.22v-.33h-.33v.45h-.11l.11,.22-.33,1.11v.45l.22,.22v.67s-.33,.33-.33,.56v1.56c-.89-.11-1.78-.33-2.67-.45-1.11-.22-2.12-.45-3.12-.56,.67,.22,1.34,.67,2.12,1.11,1.11,.78,2.34,1.78,3.34,3.23,.11,.22,.22,.45,.33,.67v2.56l-.67,.22v3.68l-.89,.22v4.68l-.89,.22v21.17l12.81,.67v-22.06l.22-.22v-.11l-1.11-.22Zm-11.14-13.37c-.67-.67-1.23-1.11-1.78-1.45-.22-.11-.33-.22-.45-.33l.56,.22,3.45,.67v3.12c-.45-.67-1-1.45-1.78-2.23Z"/><g id="Fenster_Leuchthaus_"><polygon class="cls-3" points="510.4 184.89 510.4 185.66 511.29 185.38 511.29 184.47 510.4 184.89"/><polygon class="cls-3" points="510.4 185.76 510.4 186.41 511.29 185.99 511.29 185.47 510.4 185.76"/><path class="cls-3" d="M511.29,186.12s-.89,.48-.89,.48v.34l.89-.14v-.68Z"/><polygon class="cls-3" points="510.4 187.07 510.4 187.22 510.58 187.67 511.29 187.6 511.29 186.94 510.4 187.07"/><polygon class="cls-3" points="511.5 184.34 511.5 185.32 513.2 185.2 513.2 184.23 511.5 184.34"/><polygon class="cls-3" points="511.5 185.45 511.5 186.77 513.2 186.77 513.2 185.32 511.5 185.45"/><polygon class="cls-3" points="511.5 186.94 511.5 187.52 513.2 187.43 513.2 186.92 511.5 186.94"/><polygon class="cls-3" points="513.48 184.23 513.48 185.19 514.72 185.32 514.62 185.16 514.62 185.1 514.78 185.1 514.78 184.65 514.81 184.65 514.81 184.47 513.48 184.23"/><polygon class="cls-3" points="513.48 185.32 513.48 185.87 514.68 186.04 514.77 185.49 513.48 185.32"/><polygon class="cls-3" points="513.48 186 513.48 186.77 514.5 186.92 514.46 186.88 514.46 186.49 514.56 186.49 514.64 186.17 513.52 186 513.48 186"/><polygon class="cls-3" points="513.48 186.92 513.48 187.41 514.6 187.61 514.6 187.14 514.47 187.06 513.48 186.92"/><polygon class="cls-3" points="515.09 184.73 515.09 185.07 515.27 185.19 515.27 185.32 515.15 185.32 515.14 185.58 515.29 185.58 515.29 184.99 515.09 184.73"/></g></g><g><path class="cls-1" d="M136.74,379.44h39.49v11.07h-26.34v10.35h20.67v11.07h-20.67v21.79h-13.15v-54.28Z"/><path class="cls-1" d="M179.02,406.54c0-15.67,12.63-27.9,28.34-27.9s28.38,12.27,28.38,27.9-12.27,27.98-28.38,27.98-28.34-11.87-28.34-27.98Zm13.51,0c0,8.67,6.04,15.27,14.83,15.27s14.91-6.12,14.91-15.27-6.4-15.15-14.91-15.15-14.83,6.36-14.83,15.15Z"/><path class="cls-1" d="M244.97,433.72v-54.28h27.42c10.23,0,18.55,7.24,18.55,17.63,0,7.75-4.36,13.71-10.67,16.39l11.35,20.31h-14.19l-10.27-18.75h-9.07v18.71h-13.11Zm13.11-29.9h11.47c4.96,0,7.91-2.92,7.91-6.76,0-3.6-2.92-6.44-7.91-6.44h-11.47v13.19Z"/><path class="cls-1" d="M299.61,379.44h13.47l16.39,35.42,16.39-35.42h13.47v54.28h-13.15v-29.34l-12.31,26.14h-8.79l-12.31-26.14v29.34h-13.15v-54.28Z"/><path class="cls-1" d="M384.63,379.44v34.02c0,5.92,3.84,9.67,9.83,9.67s9.87-3.72,9.87-9.67v-34.02h13.15v34.74c0,12.63-8.71,20.35-23.02,20.35s-22.98-7.48-22.98-20.35v-34.74h13.15Z"/><path class="cls-1" d="M470.33,433.72h-40.69v-54.28h13.15v43.25h27.54v11.03Z"/><path class="cls-1" d="M492.15,379.44h15.59l21.47,54.28h-14.07l-3.68-9.95h-22.98l-3.68,9.95h-14.07l21.43-54.28Zm.08,34.1h15.47l-7.71-20.95-7.75,20.95Z"/><path class="cls-1" d="M535.31,433.72v-54.28h27.42c10.23,0,18.55,7.24,18.55,17.63,0,7.75-4.36,13.71-10.67,16.39l11.35,20.31h-14.19l-10.27-18.75h-9.07v18.71h-13.11Zm13.11-29.9h11.47c4.96,0,7.91-2.92,7.91-6.76,0-3.6-2.92-6.44-7.91-6.44h-11.47v13.19Z"/><path class="cls-1" d="M630.65,433.72h-40.69v-54.28h13.15v43.25h27.54v11.03Z"/><path class="cls-7" d="M630.64,406.54c0-15.67,12.63-27.9,28.34-27.9s28.38,12.27,28.38,27.9-12.27,27.98-28.38,27.98-28.34-11.87-28.34-27.98Zm13.51,0c0,8.67,6.04,15.27,14.83,15.27s14.91-6.12,14.91-15.27-6.4-15.15-14.91-15.15-14.83,6.36-14.83,15.15Z"/><path class="cls-1" d="M687.95,379.44h45.21v11.31h-16.03v42.97h-13.11v-42.97h-16.07v-11.31Z"/><path class="cls-1" d="M745.71,414.85c3.08,4.8,8.15,7.79,13.43,7.79,4.28,0,7.79-1.72,7.79-4.2,0-3.48-4.6-4.52-11.11-6.48-9.71-2.92-18.55-6.04-18.55-17.15,0-9.99,9.75-16.19,19.71-16.19s16.55,4.6,21.35,11.59l-9.71,7.16c-2.4-3.44-6.36-7.2-11.63-7.2-3.8,0-6.44,1.8-6.44,4.4,0,3.6,4.16,4.24,10.03,6.2,12.27,4.08,19.63,7.32,19.63,17.23,0,11.31-11.03,16.51-21.39,16.51-9.75,0-18.91-4.32-22.98-12.47l9.87-7.2Z"/><path class="cls-1" d="M789.48,379.44h38.49v11.07h-25.34v10.07h22.19v11.03h-22.19v11.07h25.74v11.03h-38.89v-54.28Z"/><path class="cls-1" d="M837.56,433.72v-54.28h11.19l27.34,33.1v-33.1h13.15v54.28h-11.39l-27.14-32.78v32.78h-13.15Z"/></g><g><g><path class="cls-7" d="M244.05,345.54v-50.91h23.81c9.49,0,16.16,5.14,16.16,13.57,0,5.1-2.55,9-7.09,11.58,6,2.25,8.51,6.41,8.51,11.85,0,7.72-5.92,13.91-15.9,13.91h-25.49Zm21.89-30.18c3.41,0,5.25-2.55,5.25-5.21s-2.02-5.21-5.62-5.21h-9.19v10.42h9.56Zm.49,19.91c3.56,0,5.62-2.66,5.62-5.17,0-2.77-2.02-5.29-5.62-5.29h-10.05v10.46h10.05Z"/><path class="cls-7" d="M293.27,345.54v-35.99h11.13l.37,4.91c1.69-3.56,5.25-5.66,9.41-5.66,1.42,0,2.89,.26,4.39,.75l-.71,10.31c-1.5-.52-3.04-.79-4.54-.79-4.46,0-8.25,2.44-8.25,9.15v17.32h-11.81Z"/><path class="cls-7" d="M338.51,308.8c8.85,0,18,5.55,18,17.58,0,1.31-.11,2.74-.34,4.2h-24.29c.49,3.9,4.24,5.74,7.95,5.74,3.22,0,6.11-2.02,8.06-4.46l7.5,6.6c-2.74,4.35-8.4,7.84-15.71,7.84-11.43,0-19.35-7.8-19.35-18.75s7.35-18.75,18.18-18.75Zm-6.64,14.85h13.72c-.11-2.81-2.96-5.55-6.75-5.55-4.12,0-6.56,2.59-6.97,5.55Z"/><path class="cls-7" d="M364.08,309.55h10.83l.37,3.79c2.55-3.22,6.9-4.54,11.13-4.54,4.8,0,9.41,2.02,11.32,6,2.92-4.12,7.57-6,12.11-6,6.94,0,13.5,4.57,13.5,13.35v23.39h-11.81v-20.02c0-4.01-2.92-5.92-5.89-5.92s-6.07,1.91-6.07,5.92v20.02h-11.81v-20.02c0-4.01-3.04-5.92-5.89-5.92s-6,1.91-6,5.92v20.02h-11.81v-35.99Z"/><path class="cls-7" d="M448.57,308.8c8.85,0,18,5.55,18,17.58,0,1.31-.11,2.74-.34,4.2h-24.29c.49,3.9,4.24,5.74,7.95,5.74,3.22,0,6.11-2.02,8.06-4.46l7.5,6.6c-2.74,4.35-8.4,7.84-15.71,7.84-11.43,0-19.35-7.8-19.35-18.75s7.35-18.75,18.18-18.75Zm-6.64,14.85h13.72c-.11-2.81-2.96-5.55-6.75-5.55-4.12,0-6.56,2.59-6.97,5.55Z"/><path class="cls-7" d="M474.14,345.54v-35.99h11.13l.37,4.91c1.69-3.56,5.25-5.66,9.41-5.66,1.42,0,2.89,.26,4.39,.75l-.71,10.31c-1.5-.52-3.04-.79-4.54-.79-4.46,0-8.25,2.44-8.25,9.15v17.32h-11.81Z"/><path class="cls-7" d="M505.25,345.54v-52.79h11.81v19.91c2.59-2.74,6.64-3.86,10.57-3.86,6.79,0,13.31,4.76,13.31,13.35v23.39h-11.81v-20.02c0-4.01-3.19-5.92-6.04-5.92s-6,1.91-6,5.92v20.02h-11.85Z"/><path class="cls-7" d="M548.21,335.34c0-7.16,7.05-11.47,15.22-11.47,2.59,0,5.02,.34,7.2,.94v-.71c0-2.81-2.47-4.87-6.75-4.87-3.64,0-6.75,1.87-8.66,4.01l-6.52-7.01c2.74-3.04,8.36-7.42,16.2-7.42,10.95,0,17.55,5.77,17.55,15.37v21.37h-11.21v-3.67c-1.84,2.47-5.32,4.42-9.6,4.42-7.61,0-13.42-4.12-13.42-10.95Zm16.01,2.89c3.6,0,6.41-2.44,6.41-6.26-1.27-.56-3.34-.94-5.1-.94-3.67,0-6,1.27-6,3.6,0,2.14,1.95,3.6,4.69,3.6Z"/><path class="cls-7" d="M586.78,309.55h12.41l7.35,24.44,7.35-24.44h12.41l-12.48,35.99h-14.55l-12.48-35.99Z"/><path class="cls-7" d="M646.61,308.8c8.85,0,18,5.55,18,17.58,0,1.31-.11,2.74-.34,4.2h-24.29c.49,3.9,4.24,5.74,7.95,5.74,3.22,0,6.11-2.02,8.06-4.46l7.5,6.6c-2.74,4.35-8.4,7.84-15.71,7.84-11.43,0-19.35-7.8-19.35-18.75s7.35-18.75,18.18-18.75Zm-6.64,14.85h13.72c-.11-2.81-2.96-5.55-6.75-5.55-4.12,0-6.56,2.59-6.97,5.55Z"/><path class="cls-7" d="M671.16,345.54v-35.99h10.83l.37,3.79c2.55-3.22,6.9-4.54,11.13-4.54,6.79,0,13.31,4.76,13.31,13.35v23.39h-11.81v-20.02c0-4.01-3.19-5.92-6.04-5.92s-6,1.91-6,5.92v20.02h-11.81Z"/><path class="cls-7" d="M731.06,308.8c8.85,0,18,5.55,18,17.58,0,1.31-.11,2.74-.34,4.2h-24.29c.49,3.9,4.24,5.74,7.95,5.74,3.22,0,6.11-2.02,8.06-4.46l7.5,6.6c-2.74,4.35-8.4,7.84-15.71,7.84-11.43,0-19.35-7.8-19.35-18.75s7.35-18.75,18.18-18.75Zm-6.64,14.85h13.72c-.11-2.81-2.96-5.55-6.75-5.55-4.12,0-6.56,2.59-6.97,5.55Z"/><path class="cls-7" d="M756.63,345.54v-35.99h11.13l.37,4.91c1.69-3.56,5.25-5.66,9.41-5.66,1.42,0,2.89,.26,4.39,.75l-.71,10.31c-1.5-.52-3.04-.79-4.54-.79-4.46,0-8.25,2.44-8.25,9.15v17.32h-11.81Z"/></g><line class="cls-8" x1="800.71" y1="327.54" x2="889.25" y2="327.54"/><line class="cls-8" x1="134.75" y1="327.54" x2="223.29" y2="327.54"/></g></g></svg>